<svg height="700pt" preserveAspectRatio="xMidYMid meet" viewBox="0 0 700 700" width="700pt" xmlns="http://www.w3.org/2000/svg"><g transform="matrix(.1 0 0 -.1 0 700)"><path d="m3278 6995c-1-1-39-5-83-9-76-6-103-9-205-22-25-3-90-14-145-25s-111-22-125-25c-129-25-374-103-544-173-126-51-448-217-454-233-2-4-8-8-13-8-20 0-237-149-364-250-137-108-306-267-450-425-82-89-335-422-335-440 0-4-13-25-29-48-15-23-49-79-75-125-216-383-365-817-422-1231-3-25-8-57-10-71-25-160-25-645 1-811 2-13 7-46 11-74 21-146 45-271 75-387 20-79 79-274 97-318 6-14 20-52 32-85 43-115 144-325 218-455 220-384 531-748 867-1014 33-26 69-54 79-63 19-16 243-166 301-202 153-96 414-219 610-288 343-120 598-176 915-203 97-8 524-5 570 4 14 2 52 7 85 11 92 10 118 14 275 46 155 31 170 34 300 72 224 64 511 184 712 298 51 28 107 60 124 70 257 144 604 432 831 687 109 123 125 142 153 182 13 19 27 37 30 40 16 13 141 196 197 290 63 103 175 320 222 430 81 188 181 520 205 685 3 22 10 63 16 90 9 50 14 86 25 200 4 33 9 67 12 75 9 26 11 500 2 592-20 216-36 317-78 498-258 1121-1071 2059-2152 2484-182 71-471 153-634 180-32 5-222 32-295 42-48 6-546 15-552 9zm747-899c61-4 119-9 130-11s46-6 78-10c31-4 60-11 62-15 7-12 43-200 47-245 3-37 1-40-22-39-27 2-138 13-184 18-27 3-28 2-23-28 16-87 38-204 42-226 3-14 9-50 15-80s12-65 14-78c3-12 17-85 31-162 33-175 34-180 40-210 3-14 8-43 11-65s7-42 9-45 6-26 10-50c3-25 8-53 11-62 5-16-2-18-48-19-62-1-122-5-195-13-29-3-53-2-54 2 0 4-2 14-4 22-4 21-36 189-41 220-3 14-7 36-10 50-2 14-11 59-19 100s-17 89-20 105c-3 17-19 100-35 185s-36 193-45 240c-24 126-17 117-83 114-31-1-87-5-124-8-52-5-68-3-69 6 0 7-2 20-4 28-29 147-46 243-43 252 5 14 16 15 143 24 55 4 101 7 102 8 4 3 174-2 278-8zm-561-192c14-77 28-150 31-164s16-86 30-160 30-155 35-180c11-51 57-297 65-349 3-19 7-37 9-40s7-31 11-61 9-58 11-61c2-4 6-24 10-45 3-22 10-57 15-79 4-22 9-43 9-47 0-7-40-17-131-32-19-3-64-12-101-19-77-16-69-22-87 73-6 30-12 65-15 76-2 12-7 37-10 55-3 19-14 79-25 134s-24 127-30 160-14 71-17 85c-6 29-7 35-39 205-14 72-27 139-29 150-5 24-36 190-42 225-3 14-12 57-20 95-7 39-14 75-14 81 0 13 106 39 245 60 22 3 42 8 45 10 8 8 18-31 44-172zm-479 19c5-27 9-52 11-58 1-5 5-26 9-45 3-19 15-75 25-125 10-49 37-187 60-305s48-246 55-285c8-38 17-85 20-103s12-63 20-100c7-38 17-90 21-118 3-27 8-51 9-54 2-3 6-30 10-61l6-54-138-35c-76-19-142-35-148-35-5 0-13 18-16 40-4 22-10 51-12 65-22 116-38 199-42 220-3 14-7 36-10 50-2 14-9 50-15 80-7 30-13 62-14 70-4 19-16 17-166-35-145-50-232-84-241-93-4-4 2-49 12-100 10-52 20-108 23-125 3-18 8-43 11-57 17-77 36-180 41-215l5-40-78-24c-43-14-104-35-135-47-60-23-64-23-72 17-2 13-16 83-31 154-15 72-29 141-31 155s-9 45-14 70-12 56-14 70c-3 14-17 84-31 155-34 166-33 161-45 220-5 28-21 106-35 175-41 195-41 186 2 210 21 11 55 31 75 43 21 12 64 36 97 54l59 32 7-27c4-15 8-34 10-42s12-60 24-115c11-55 22-111 25-125 21-111 29-146 34-156 5-6 79 17 207 67 186 72 200 79 197 101-2 12-16 91-32 173-16 83-31 162-34 178-3 15-7 35-10 45-3 9-7 33-10 54l-6 36 73 26c225 81 222 81 232 19zm1639-1467c169-50 282-194 293-376 4-60 1-86-16-131-23-60-73-119-123-145l-32-16 36-32c131-116 243-211 306-259l73-56-118-36c-65-20-138-43-162-51-27-8-49-10-60-5-18 10-213 206-287 289-50 55-66 64-58 32 8-36 11-55 19-95 13-70 14-78 39-195 13-63 21-118 17-122-14-14-273-90-280-82-5 5-18 61-30 124s-26 133-31 155-12 54-14 70c-3 17-25 134-50 260-25 127-48 246-51 265s-8 42-10 50-7 31-10 50-8 42-10 50-6 31-9 50-8 46-11 60-9 46-14 72l-8 46 56 7c101 13 198 22 319 31 53 3 98 7 99 8 7 6 82-5 127-18zm-1024-146c100-34 174-77 243-144 146-139 216-309 222-538 9-343-220-662-533-743-74-19-172-25-222-14-19 4-48 10-65 13-52 9-171 74-223 121-305 274-327 854-44 1151 48 51 143 116 202 138 131 49 301 55 420 16zm-967-362c15-78 24-144 21-147s-78-27-167-52c-113-32-162-51-160-60 0-8 9-55 18-106l17-91 32 5c18 3 86 20 152 37l119 33 8-26c6-22 44-214 50-260 1-7-5-15-13-17-8-1-76-18-150-36-148-37-145-34-128-108 4-19 11-51 14-70s14-80 24-135c11-55 22-116 25-135 4-19 10-52 14-72l9-37-47-10c-43-10-127-24-198-35-31-4-32-3-42 47-13 62-71 372-78 407-2 14-15 81-28 150-14 69-27 141-30 160-5 30-49 258-86 449-6 29-7 56-2 60 4 5 103 38 218 75 116 37 242 78 280 91 39 13 77 24 85 24 11 1 22-32 43-141zm2224-964c-75-196-187-512-187-527 0-31 303-198 439-242 29-10 49-20 43-24-5-3-29-22-53-43-84-70-235-184-253-191-12-5-29-1-45 10-14 10-34 22-43 28-78 46-167 102-187 117l-25 19-13-33c-6-18-40-114-73-213-98-288-79-256-189-321-135-81-233-135-238-130s110 342 217 636c44 120 70 199 70 210 0 3-21 22-47 42-27 20-57 45-68 55s-54 47-95 83c-88 77-87 76-179 164-39 38-68 72-64 76s84 35 178 69l170 62 113-114c112-114 113-115 123-88 22 59 34 101 70 226 12 44 28 87 36 96 7 9 75 40 151 68 75 29 146 56 157 60 11 5 21 5 23 1 1-4-13-47-31-96zm-1104-435c3-19 10-59 16-89 7-30 14-66 16-80 3-14 7-36 10-50 7-29 23-114 30-150 3-14 7-36 10-50 13-66 137-698 141-715 3-18-17-31-136-90-77-38-141-67-143-65-4 5-50 186-61 240-2 14-18 93-35 175-16 83-32 164-35 180-3 17-10 53-15 82-6 29-13 74-17 100-3 26-8 50-9 53-3 5-19 92-41 220-3 14-15 75-28 137l-23 112 146 48 146 48 12-36c6-20 13-52 16-70zm-517-94 72-16-14-52c-7-29-16-67-19-85s-12-59-19-92c-8-32-11-61-8-64 12-12-26-5-57 10-18 9-57 16-90 16-136 0-223-110-149-189 32-34 51-43 106-49 250-28 361-75 413-176 53-103 66-284 30-398-28-89-65-149-136-220-124-127-297-175-465-130-65 17-150 62-150 79 0 8 14 78 31 157l32 142 46-30c121-77 261-69 327 18 28 36 37 87 21 119-24 49-73 75-172 90-261 38-320 78-380 260-75 223-12 448 155 555 115 74 256 92 426 55z"/><path d="m4393 4213c-13-2-23-5-23-7 0-8 52-264 56-279 5-16 12-18 42-12 51 9 127 52 142 80 38 71 6 160-72 201-29 15-110 25-145 17z"/><path d="m3330 3981c-84-27-154-93-202-190-55-112-48-270 16-388 89-162 250-224 394-152 187 93 264 359 163 558-29 57-98 123-158 151-52 25-168 36-213 21z"/></g></svg>