<svg height="700pt" viewBox="0 0 700 700" width="700pt" xmlns="http://www.w3.org/2000/svg"><path d="M327.9 1.4C125.2 12.8-28.5 204.7 5.4 405c19.4 125.4 110.3 233.9 230.5 274.5 204.4 74.3 436-69.1 460.4-285.4C724.7 177.7 545.4-12.3 327.9 1.4zm66.1 89c11.2.5 22.3 1.6 33.3 3.3 1.7.2 2.5.9 2.8 2.5 1.3 9.1 3.9 17.9 4.6 27.1l-24.1-2.5c6.3 34.3 12.8 68 19.2 102L400 225c-6.6-34.7-13.1-69.4-19.7-104.1-8.4-.3-16.5 1.1-25 1.5-1.9-10-3.8-19.9-5.7-30.2 14.7-1.9 29.5-2.5 44.4-1.8zm12.6 247.4c.2 39.2-28 73.9-67.2 75.7-78.8-1.2-84.7-141.1-2-147.1.5 0 .9-.1 1.4-.1h.1c32.6-1.3 66.3 22.9 67.7 71.5zM343.2 93c8.6 45.5 17.2 90.7 25.8 136.2l-30.2 5.8c-8.7-45.4-17.3-90.7-26-136.2 10-2.5 20.2-4.4 30.4-5.8zm-115.9 38.4c3.5 16.1 6.4 31.9 9.8 47.8l40.9-15.8-9.8-50.6c9.5-3.8 19.2-7.1 29.1-9.9 1.2 2.2 25.8 129.4 26.3 135.6l-29.5 7.8-10.6-54.9c-14 4.4-27.4 9.2-41 14.7 3.4 17.7 6.8 35.3 10.3 53.1l-27.9 9.9c-8.2-40.7-16.4-81.2-24.6-122 8.6-5.6 17.4-10.8 27-15.7zm-3 306.3l-24.2-127.6c20-6.8 40-13.2 60.5-19.5 1.9 10.1 3.7 19.6 5.6 29.6l-33.8 9.7c1.3 7.1 2.6 13.9 4 21.1 10.4-2 20.4-5.3 30.7-7.8 2.1 9.9 3.8 19.7 5.7 29.9l-30.7 7.6c3.2 17.4 6.4 34.6 9.7 52.1-9.1 2.2-18.2 3.6-27.5 4.9zm127.4 119.7c-2.8 16-12.9 29.8-27.3 37.5-14.5 7.6-32.8 8.1-49.7-3.3l6.9-31c27.5 23.1 53.9-5.7 32-17.5-15.6-4.3-36-1.4-44.4-18.5-21.8-47.6 12.1-84.4 61.4-68.4-2.2 10.1-4.3 20.1-6.5 30.4-21.5-13.9-45.3 9.8-22.3 19.4 19.3 2.3 45 2.8 48.3 27 2.5 7.8 3 16.2 1.6 24.4zm17.8 16.9c-11.3-42.8-16.8-87.1-26.2-130.3l29.7-9.8 24.8 125.9zM486 503.5c-.7.6-1.5 1-2.4 1.1-.9 0-1.8-.3-2.5-.8-9-5.8-18.1-11.1-26.9-17.1-3.1 8.5-6 17.1-8.9 25.6-2.5 7.3-4.9 14.5-7.4 21.8-.6 2.1-2 3.8-3.8 4.9-10.7 5.8-20.6 13.1-31.7 18 9.5-28.5 19.6-56.7 29.9-85.1-16.4-13.2-32.1-27.2-47.1-42l36.1-13.1 22.7 23.1c2.3-6.3 4.1-12.6 5.9-19 1.3-4.7 2.6-9.4 4.1-14.1.4-1.9 1.8-3.4 3.7-3.9 10.7-3.9 20.8-8.3 31.6-12-2.1 5.6-4.1 11-6.1 16.4-.9 2.3-1.7 4.6-2.5 6.9-1.7 4.7-3.4 9.3-5.1 14-.4 1.2-.9 2.4-1.3 3.6-.8 2.1-1.5 4.2-2.3 6.3-2 5.5-4 11.1-6 16.8 3.6 2.5 7.1 4.8 10.7 7 1.4.8 2.7 1.7 4.1 2.5 3 1.8 6 3.4 9 5 1.3.7 2.7 1.4 4.1 2 1.4.7 2.8 1.3 4.3 2 .8.3 1.6.7 2.3 1 4.9 2.1 10 4 15.1 5.6-9.5 8.4-19.8 15.5-29.6 23.5zm-.8-138.2c-.9.3-1.9.4-2.8.3-1-.2-1.9-.8-2.6-1.6-5.9-6.4-12.1-12.5-18.2-18.8l-6-6.3c-2.7-2.8-5.3-5.6-7.8-8.6l-.8.5c2.9 14.3 5.8 28.7 8.7 43.5l-29 9.3c-8.4-42.1-16.5-83.9-24.6-126.1 14.6-2.3 28.8-3.2 43.4-4.6 9.1-.8 18.2 1.1 26.2 5.5 22.7 11.8 30 52 2.8 62.7 13.2 12.3 27 24 41.4 34.9-10.3 3.5-20.5 6-30.7 9.3z"/><path d="M317.5 313.2c-13.3 16.6-10.4 42 4 56.2 25.5 23.3 54-4.2 52.8-30.6 2.4-31.8-36.3-52.3-56.8-25.6zm120-34.2c-.3 0-.5.4-.8.7 1.9 9.7 3.8 19.3 5.8 29.4 7.9-1.1 17.3-3 19.6-11.7 2.9-14.7-12.2-21.5-24.6-18.4z"/></svg>